HIERARCHY
ROOT Hips
{
	OFFSET 0.000000 71.427986 0.000000
	CHANNELS 6 Xposition Yposition Zposition Xrotation Yrotation Zrotation
	JOINT Pelvis
	{
		OFFSET 0.000000 0.000000 0.000000
		CHANNELS 3 Xrotation Yrotation Zrotation
		JOINT LeftUpLeg
		{
			OFFSET 6.797100 -2.508499 -1.318700
			CHANNELS 3 Xrotation Yrotation Zrotation
			JOINT LeftLeg
			{
				OFFSET 0.069008 -29.241863 0.690200
				CHANNELS 3 Xrotation Yrotation Zrotation
				JOINT LeftFoot
				{
					OFFSET -0.069008 -29.568123 -0.266800
					CHANNELS 3 Xrotation Yrotation Zrotation
					JOINT LeftToeBase
					{
						OFFSET 3.145500 -8.631000 16.059900
						CHANNELS 3 Xrotation Yrotation Zrotation
						End Site
						{
							OFFSET 0.000000 18.501587 0.000000
						}
					}
				}
			}
			JOINT Left_ShortSleeve
			{
				OFFSET 0.265923 -10.480953 1.153800
				CHANNELS 3 Xrotation Yrotation Zrotation
				End Site
				{
					OFFSET 1.725763 19.823879 0.000000
				}
			}
		}
		JOINT RightUpLeg
		{
			OFFSET -6.797100 -2.508499 -1.318700
			CHANNELS 3 Xrotation Yrotation Zrotation
			JOINT RightLeg
			{
				OFFSET -0.082453 -29.241932 0.688000
				CHANNELS 3 Xrotation Yrotation Zrotation
				JOINT RightFoot
				{
					OFFSET 0.082453 -29.568058 -0.264600
					CHANNELS 3 Xrotation Yrotation Zrotation
					JOINT RightToeBase
					{
						OFFSET -3.115300 -8.682800 16.113400
						CHANNELS 3 Xrotation Yrotation Zrotation
						End Site
						{
							OFFSET 0.000000 18.567114 0.000000
						}
					}
				}
			}
			JOINT Right_ShortSleeve
			{
				OFFSET -0.265923 -10.480953 1.153800
				CHANNELS 3 Xrotation Yrotation Zrotation
				End Site
				{
					OFFSET -1.725766 19.823910 0.000000
				}
			}
		}
	}
	JOINT Spine
	{
		OFFSET 0.000000 13.368103 0.470500
		CHANNELS 3 Xrotation Yrotation Zrotation
		JOINT Spine1
		{
			OFFSET 0.147000 13.837402 0.538800
			CHANNELS 3 Xrotation Yrotation Zrotation
			JOINT Spine2
			{
				OFFSET 0.168000 16.242897 -1.435500
				CHANNELS 3 Xrotation Yrotation Zrotation
				JOINT Neck
				{
					OFFSET 0.217200 18.631500 -1.679100
					CHANNELS 3 Xrotation Yrotation Zrotation
					JOINT Head
					{
						OFFSET 0.000000 6.599396 1.385900
						CHANNELS 3 Xrotation Yrotation Zrotation
						JOINT Hat
						{
							OFFSET -0.532200 27.220596 -10.096100
							CHANNELS 3 Xrotation Yrotation Zrotation
							End Site
							{
								OFFSET 0.000000 22.029861 0.000000
							}
						}
						JOINT HairD
						{
							OFFSET -10.777400 17.437393 -1.325900
							CHANNELS 3 Xrotation Yrotation Zrotation
							JOINT HairD1
							{
								OFFSET -3.290299 -11.051193 1.062200
								CHANNELS 3 Xrotation Yrotation Zrotation
								End Site
								{
									OFFSET 0.000000 11.579437 0.000000
								}
							}
						}
						JOINT HairB
						{
							OFFSET -10.777400 17.437393 1.467900
							CHANNELS 3 Xrotation Yrotation Zrotation
							JOINT HairB1
							{
								OFFSET -1.561200 -12.956299 3.590200
								CHANNELS 3 Xrotation Yrotation Zrotation
								End Site
								{
									OFFSET 0.000000 13.534866 0.000000
								}
							}
						}
						JOINT HairA
						{
							OFFSET 9.713100 17.437393 1.467900
							CHANNELS 3 Xrotation Yrotation Zrotation
							JOINT HairA1
							{
								OFFSET 1.561200 -12.956299 3.590200
								CHANNELS 3 Xrotation Yrotation Zrotation
								End Site
								{
									OFFSET 0.000000 13.534866 0.000000
								}
							}
						}
						JOINT HairC
						{
							OFFSET 9.713100 17.437393 -1.325900
							CHANNELS 3 Xrotation Yrotation Zrotation
							JOINT HairC1
							{
								OFFSET 3.290300 -11.051193 1.062200
								CHANNELS 3 Xrotation Yrotation Zrotation
								End Site
								{
									OFFSET 0.000000 11.579437 0.000000
								}
							}
						}
					}
				}
				JOINT LeftShoulder
				{
					OFFSET 5.101800 15.108002 -2.763700
					CHANNELS 3 Xrotation Yrotation Zrotation
					JOINT LeftArm
					{
						OFFSET 9.825497 2.506317 -1.597400
						CHANNELS 3 Xrotation Yrotation Zrotation
						JOINT LeftForeArm
						{
							OFFSET 21.966244 0.000000 0.000000
							CHANNELS 3 Xrotation Yrotation Zrotation
							JOINT LeftHand
							{
								OFFSET 33.879036 0.000000 0.000000
								CHANNELS 3 Xrotation Yrotation Zrotation
								JOINT LeftHandThumb1
								{
									OFFSET 6.715286 -2.359680 3.363841
									CHANNELS 3 Xrotation Yrotation Zrotation
									JOINT LeftHandThumb2
									{
										OFFSET 2.507072 -1.447464 1.447461
										CHANNELS 3 Xrotation Yrotation Zrotation
										JOINT LeftHandThumb3
										{
											OFFSET 2.898338 -1.673355 1.673357
											CHANNELS 3 Xrotation Yrotation Zrotation
											End Site
											{
												OFFSET -0.295959 3.727692 -0.131651
											}
										}
									}
								}
								JOINT LeftHandIndex1
								{
									OFFSET 14.190811 -0.254547 3.840278
									CHANNELS 3 Xrotation Yrotation Zrotation
									JOINT LeftHandIndex2
									{
										OFFSET 3.551727 0.000000 -0.000000
										CHANNELS 3 Xrotation Yrotation Zrotation
										JOINT LeftHandIndex3
										{
											OFFSET 2.894196 0.000000 0.000000
											CHANNELS 3 Xrotation Yrotation Zrotation
											End Site
											{
												OFFSET -1.000603 2.690872 0.366626
											}
										}
									}
								}
								JOINT LeftHandMiddle1
								{
									OFFSET 13.776489 0.000000 0.000000
									CHANNELS 3 Xrotation Yrotation Zrotation
									JOINT LeftHandMiddle2
									{
										OFFSET 3.438232 0.000000 0.000000
										CHANNELS 3 Xrotation Yrotation Zrotation
										JOINT LeftHandMiddle3
										{
											OFFSET 3.691551 0.000000 0.000000
											CHANNELS 3 Xrotation Yrotation Zrotation
											End Site
											{
												OFFSET -1.082298 3.499527 0.457670
											}
										}
									}
								}
								JOINT LeftHandRing1
								{
									OFFSET 13.966164 -0.268127 -3.067488
									CHANNELS 3 Xrotation Yrotation Zrotation
									JOINT LeftHandRing2
									{
										OFFSET 3.162567 0.000000 0.000000
										CHANNELS 3 Xrotation Yrotation Zrotation
										JOINT LeftHandRing3
										{
											OFFSET 3.324348 0.000000 0.000000
											CHANNELS 3 Xrotation Yrotation Zrotation
											End Site
											{
												OFFSET -0.861900 3.184998 0.405154
											}
										}
									}
								}
								JOINT LeftHandPinky1
								{
									OFFSET 13.131393 -0.168503 -5.746925
									CHANNELS 3 Xrotation Yrotation Zrotation
									JOINT LeftHandPinky2
									{
										OFFSET 2.849182 0.000000 0.000000
										CHANNELS 3 Xrotation Yrotation Zrotation
										JOINT LeftHandPinky3
										{
											OFFSET 2.805038 0.000000 0.000000
											CHANNELS 3 Xrotation Yrotation Zrotation
											End Site
											{
												OFFSET -0.882500 2.642609 0.325652
											}
										}
									}
								}
							}
							JOINT Left_Sleeve
							{
								OFFSET 6.592125 -0.646545 0.805568
								CHANNELS 3 Xrotation Yrotation Zrotation
								End Site
								{
									OFFSET -0.000179 20.275787 -0.000000
								}
							}
						}
					}
				}
				JOINT RightShoulder
				{
					OFFSET -5.731700 15.108002 -2.763700
					CHANNELS 3 Xrotation Yrotation Zrotation
					JOINT RightArm
					{
						OFFSET -9.825497 2.506317 -1.597400
						CHANNELS 3 Xrotation Yrotation Zrotation
						JOINT RightForeArm
						{
							OFFSET -21.966242 0.000000 0.000000
							CHANNELS 3 Xrotation Yrotation Zrotation
							JOINT RightHand
							{
								OFFSET -33.879032 0.000000 0.000000
								CHANNELS 3 Xrotation Yrotation Zrotation
								JOINT RightHandThumb1
								{
									OFFSET -6.715286 -2.359680 3.363841
									CHANNELS 3 Xrotation Yrotation Zrotation
									JOINT RightHandThumb2
									{
										OFFSET -2.507072 -1.447464 1.447461
										CHANNELS 3 Xrotation Yrotation Zrotation
										JOINT RightHandThumb3
										{
											OFFSET -2.898338 -1.673355 1.673357
											CHANNELS 3 Xrotation Yrotation Zrotation
											End Site
											{
												OFFSET 0.295959 3.727692 -0.131651
											}
										}
									}
								}
								JOINT RightHandIndex1
								{
									OFFSET -14.190811 -0.254547 3.840278
									CHANNELS 3 Xrotation Yrotation Zrotation
									JOINT RightHandIndex2
									{
										OFFSET -3.551727 0.000000 -0.000000
										CHANNELS 3 Xrotation Yrotation Zrotation
										JOINT RightHandIndex3
										{
											OFFSET -2.894196 0.000000 0.000000
											CHANNELS 3 Xrotation Yrotation Zrotation
											End Site
											{
												OFFSET 1.000603 2.690872 0.366626
											}
										}
									}
								}
								JOINT RightHandMiddle1
								{
									OFFSET -13.776489 0.000000 0.000000
									CHANNELS 3 Xrotation Yrotation Zrotation
									JOINT RightHandMiddle2
									{
										OFFSET -3.438232 0.000000 0.000000
										CHANNELS 3 Xrotation Yrotation Zrotation
										JOINT RightHandMiddle3
										{
											OFFSET -3.691551 0.000000 0.000000
											CHANNELS 3 Xrotation Yrotation Zrotation
											End Site
											{
												OFFSET 1.082298 3.499527 0.457670
											}
										}
									}
								}
								JOINT RightHandRing1
								{
									OFFSET -13.966164 -0.268127 -3.067488
									CHANNELS 3 Xrotation Yrotation Zrotation
									JOINT RightHandRing2
									{
										OFFSET -3.162567 0.000000 0.000000
										CHANNELS 3 Xrotation Yrotation Zrotation
										JOINT RightHandRing3
										{
											OFFSET -3.324348 0.000000 0.000000
											CHANNELS 3 Xrotation Yrotation Zrotation
											End Site
											{
												OFFSET 0.861900 3.184998 0.405154
											}
										}
									}
								}
								JOINT RightHandPinky1
								{
									OFFSET -13.131393 -0.168503 -5.746925
									CHANNELS 3 Xrotation Yrotation Zrotation
									JOINT RightHandPinky2
									{
										OFFSET -2.849182 0.000000 0.000000
										CHANNELS 3 Xrotation Yrotation Zrotation
										JOINT RightHandPinky3
										{
											OFFSET -2.805038 0.000000 0.000000
											CHANNELS 3 Xrotation Yrotation Zrotation
											End Site
											{
												OFFSET 0.882500 2.642609 0.325652
											}
										}
									}
								}
							}
							JOINT Right_Sleeve
							{
								OFFSET -6.592125 -0.646545 0.805568
								CHANNELS 3 Xrotation Yrotation Zrotation
								End Site
								{
									OFFSET 0.000179 20.275787 -0.000000
								}
							}
						}
					}
				}
				JOINT Bind_Right_JacketString
				{
					OFFSET -3.534800 11.969597 7.200700
					CHANNELS 3 Xrotation Yrotation Zrotation
					JOINT Bind_Right_JacketString1
					{
						OFFSET -0.319900 -6.102600 2.794100
						CHANNELS 3 Xrotation Yrotation Zrotation
						End Site
						{
							OFFSET 0.000000 6.719452 0.000000
						}
					}
				}
				JOINT Bind_Left_JacketString
				{
					OFFSET 2.904800 11.969597 7.200700
					CHANNELS 3 Xrotation Yrotation Zrotation
					JOINT Bind_Left_JacketString1
					{
						OFFSET 0.364800 -5.904503 3.186800
						CHANNELS 3 Xrotation Yrotation Zrotation
						End Site
						{
							OFFSET 0.000000 6.719513 0.000000
						}
					}
				}
				JOINT HairE
				{
					OFFSET 5.915200 17.612701 -11.592200
					CHANNELS 3 Xrotation Yrotation Zrotation
					JOINT HairE1
					{
						OFFSET 0.289200 -7.171898 -1.284500
						CHANNELS 3 Xrotation Yrotation Zrotation
						End Site
						{
							OFFSET 0.000000 7.291756 0.000000
						}
					}
				}
				JOINT HairF
				{
					OFFSET -0.864800 17.612701 -11.592200
					CHANNELS 3 Xrotation Yrotation Zrotation
					JOINT HairF1
					{
						OFFSET 0.000000 -14.087097 -2.127501
						CHANNELS 3 Xrotation Yrotation Zrotation
						End Site
						{
							OFFSET 0.000000 14.246841 0.000000
						}
					}
				}
				JOINT HairG
				{
					OFFSET -8.087700 17.612701 -11.592200
					CHANNELS 3 Xrotation Yrotation Zrotation
					JOINT HairG1
					{
						OFFSET -0.293600 -6.081398 -0.910100
						CHANNELS 3 Xrotation Yrotation Zrotation
						End Site
						{
							OFFSET 0.000000 6.156120 0.000000
						}
					}
				}
			}
		}
	}
	JOINT Pouch
	{
		OFFSET 0.000000 4.394501 10.847300
		CHANNELS 3 Xrotation Yrotation Zrotation
		End Site
		{
			OFFSET 0.000000 21.880577 0.000000
		}
	}
	JOINT Bag
	{
		OFFSET -13.229000 4.813004 -0.593300
		CHANNELS 3 Xrotation Yrotation Zrotation
		End Site
		{
			OFFSET 0.000000 21.880577 0.000000
		}
	}
	JOINT OccupyGuyFacialAnim_Joint
	{
		OFFSET 1.000000 -70.206398 -1.655000
		CHANNELS 3 Xrotation Yrotation Zrotation
		End Site
		{
			OFFSET 0.000000 21.880577 0.000000
		}
	}
}
MOTION
Frames: 4
Frame Time: 0.033333
-0.356276 37.398384 1.222437 0.473034 -15.527160 3.649101 -0.000000 0.000001 0.000000 -92.382427 -10.425223 6.858685 108.709632 6.174695 -0.023633 -14.176557 -2.459386 -15.119493 -0.000000 -0.000000 0.000000 0.000000 0.000001 -0.000000 -10.004072 19.087124 -7.644809 128.170699 -1.386676 -2.271457 -50.356413 -15.151786 -6.701211 -0.000001 -0.000002 -0.000000 0.000001 -0.000000 0.000000 2.562193 0.829097 0.595154 0.788493 -6.354973 -3.970874 -1.031289 -6.756012 -3.236346 11.990282 6.675634 -3.993489 2.065804 21.504040 7.720856 -0.000000 0.000000 0.000000 -0.000000 0.000000 0.000000 -0.000000 0.000000 0.000001 -0.000000 0.000000 -0.000000 -0.000000 0.000000 -0.000000 -0.000000 0.000000 -0.000000 -0.000000 0.000000 -0.000000 -0.000000 0.000000 0.000000 -0.000000 0.000000 0.000000 4.151723 5.211028 -13.307670 -53.272136 -31.839173 -51.546738 -0.000058 -83.735660 -0.000060 -56.934080 27.243709 39.379336 -14.557472 10.837955 12.229969 0.749524 -4.257938 13.305466 0.000002 0.000001 0.000002 -0.809536 2.578183 -31.496427 3.095893 5.163748 -61.866966 0.000001 -0.000001 0.000001 -2.430840 1.729240 -41.460918 2.952352 5.084725 -60.259931 -0.000000 -0.000000 0.000001 -6.054129 -0.166602 -49.857563 3.046257 5.137027 -61.313959 0.000000 0.000001 -0.000001 -8.298301 -6.522633 -38.520150 2.848786 5.024377 -59.084415 0.000000 0.000003 0.000001 0.000000 -0.000000 0.000002 -14.546618 2.580356 -4.008324 74.863545 137.533085 -53.106012 -0.000014 32.117172 0.000011 -48.989347 -8.692635 -31.991069 8.377142 -4.904154 11.021985 21.620212 -18.183895 -18.379218 -0.000003 -0.000001 0.000001 0.558949 -4.406591 25.436678 1.653038 -3.560320 49.799087 0.000001 0.000001 0.000000 10.969828 -12.875573 52.800853 6.387575 -4.324421 111.833665 -0.000003 -0.000001 0.000002 3.705079 -7.151299 57.622454 5.328223 -4.608691 98.293430 0.000001 0.000000 -0.000002 0.474827 -5.172991 58.987672 3.194322 -4.421938 71.674161 -0.000000 0.000001 -0.000001 -0.000000 -0.000000 0.000001 0.000000 -0.000000 -0.000000 -0.000000 -0.000000 -0.000000 0.000000 -0.000000 -0.000000 0.000000 -0.000000 -0.000000 0.000000 -0.000000 -0.000000 -0.000000 -0.000000 -0.000000 0.000000 -0.000000 -0.000000 0.000000 -0.000000 -0.000000 0.000000 -0.000000 -0.000000 -0.000000 -0.000000 -0.000000 -0.000000 0.000001 0.000000 -0.000000 0.000001 0.000000 -0.000000 0.000001 0.000000 
-0.298761 37.403046 1.296530 0.513430 -15.656088 3.646768 -0.000000 0.000001 0.000000 -92.373445 -10.414197 6.829510 108.851311 6.275608 -0.022599 -14.334347 -2.386413 -15.147562 -0.000000 -0.000000 0.000000 -0.000000 -0.000001 0.000000 -9.855430 19.663266 -7.802702 128.048480 -1.011210 -1.991459 -50.343514 -15.147609 -6.680756 -0.000001 0.000000 -0.000000 0.000000 -0.000000 -0.000000 2.549383 0.854276 0.573144 0.779376 -6.329621 -3.982105 -1.040424 -6.731334 -3.246094 11.998364 6.672910 -3.999204 1.695236 21.303601 7.998888 -0.000001 0.000000 -0.000000 -0.000001 0.000000 -0.000000 -0.000001 0.000000 0.000000 -0.000001 0.000000 -0.000000 -0.000001 0.000000 0.000001 -0.000001 0.000000 -0.000000 -0.000001 0.000000 0.000001 -0.000001 0.000000 -0.000000 -0.000001 0.000000 -0.000000 4.165866 5.180514 -13.338445 -53.263191 -31.938689 -51.469686 -0.000340 -83.760160 -0.000369 -56.922445 27.252533 39.465571 -14.557472 10.837954 12.229969 0.749520 -4.257938 13.305466 -0.000000 -0.000000 0.000000 -0.809535 2.578186 -31.496424 3.095892 5.163748 -61.866959 0.000001 0.000000 -0.000000 -2.430838 1.729241 -41.460918 2.952350 5.084722 -60.259931 0.000000 -0.000001 0.000000 -6.054130 -0.166603 -49.857570 3.046257 5.137023 -61.313959 -0.000002 0.000001 0.000003 -8.298302 -6.522634 -38.520146 2.848787 5.024380 -59.084422 -0.000000 -0.000000 -0.000001 0.000003 0.000002 0.000003 -14.539367 2.578800 -3.967508 75.026493 137.435304 -53.245604 0.000009 32.347732 -0.000009 -49.038115 -8.705085 -32.017406 8.377142 -4.904154 11.021988 21.620211 -18.183895 -18.379219 0.000003 -0.000001 -0.000000 0.558948 -4.406593 25.436678 1.653038 -3.560321 49.799090 -0.000001 -0.000002 -0.000002 10.969824 -12.875573 52.800842 6.387576 -4.324419 111.833658 -0.000000 -0.000001 0.000001 3.705080 -7.151301 57.622454 5.328222 -4.608689 98.293430 -0.000001 -0.000002 0.000001 0.474829 -5.172991 58.987665 3.194321 -4.421938 71.674168 -0.000001 -0.000000 0.000002 0.000003 0.000001 0.000001 0.000000 -0.000001 -0.000000 0.000000 -0.000001 -0.000000 0.000000 -0.000001 -0.000000 0.000000 -0.000001 -0.000000 0.000000 -0.000001 -0.000000 0.000000 -0.000001 -0.000000 0.000000 -0.000001 -0.000000 0.000000 -0.000001 -0.000000 0.000000 -0.000001 -0.000000 0.000000 -0.000001 -0.000000 -0.000000 0.000001 0.000000 -0.000000 0.000001 0.000000 -0.000000 0.000001 0.000000 
-0.202905 37.411102 1.352679 0.622037 -15.813604 3.580388 -0.000000 0.000001 -0.000000 -92.461063 -10.487773 6.745389 108.981809 6.427458 -0.024590 -14.441585 -2.287002 -15.182831 -0.000000 -0.000000 0.000000 -0.000001 -0.000001 -0.000000 -9.870943 20.337412 -7.927577 127.939552 -0.515572 -1.696927 -50.273030 -15.143930 -6.675352 0.000000 0.000000 0.000000 -0.000000 -0.000000 -0.000001 2.516104 0.880626 0.694323 0.766496 -6.301849 -3.935519 -1.052560 -6.706653 -3.197899 12.013001 6.668778 -4.066106 1.472154 21.153159 7.882265 0.000001 0.000000 0.000000 0.000001 0.000000 0.000000 0.000001 0.000000 0.000001 0.000001 0.000000 0.000001 -0.000003 0.000000 0.000001 0.000001 0.000000 0.000001 -0.000003 0.000000 0.000001 0.000001 0.000000 0.000000 0.000001 0.000000 0.000000 4.210763 5.213702 -13.463142 -53.277081 -31.893367 -51.503260 -0.000620 -83.945777 -0.000632 -56.829387 27.357025 39.691442 -14.557472 10.837957 12.229970 0.749524 -4.257937 13.305468 -0.000001 0.000001 -0.000001 -0.809532 2.578185 -31.496434 3.095893 5.163747 -61.866959 -0.000000 0.000002 0.000000 -2.430840 1.729239 -41.460922 2.952351 5.084722 -60.259931 0.000000 0.000001 0.000002 -6.054129 -0.166604 -49.857570 3.046256 5.137028 -61.313946 -0.000000 0.000002 0.000001 -8.298303 -6.522636 -38.520146 2.848785 5.024378 -59.084415 0.000001 -0.000003 0.000001 0.000003 -0.000002 0.000003 -14.530584 2.649499 -4.002723 75.104432 137.258703 -53.354207 0.000004 32.623555 -0.000012 -49.187163 -8.761837 -31.966088 8.377141 -4.904154 11.021988 21.620216 -18.183893 -18.379218 -0.000005 0.000000 -0.000000 0.558948 -4.406593 25.436676 1.653037 -3.560321 49.799090 -0.000001 -0.000001 0.000000 10.969825 -12.875571 52.800846 6.387575 -4.324420 111.833658 -0.000000 -0.000000 0.000001 3.705078 -7.151300 57.622447 5.328222 -4.608688 98.293430 0.000000 -0.000000 -0.000002 0.474827 -5.172991 58.987665 3.194323 -4.421937 71.674168 0.000001 0.000001 -0.000003 0.000002 -0.000000 -0.000001 -0.000000 0.000002 0.000001 -0.000000 0.000002 0.000000 -0.000000 0.000002 0.000000 -0.000000 0.000002 0.000000 -0.000000 0.000002 0.000001 -0.000000 0.000002 0.000000 -0.000000 0.000002 0.000000 -0.000000 0.000002 0.000000 -0.000000 0.000002 0.000001 -0.000000 0.000002 0.000000 -0.000000 0.000001 -0.000000 -0.000000 0.000001 -0.000000 -0.000000 0.000001 -0.000000 
-0.194018 37.475014 1.328602 0.799300 -14.881789 3.820283 -0.000000 0.000002 -0.000000 -93.255619 -9.706598 6.166507 109.287931 4.565183 -0.010872 -16.612383 -2.658725 -14.215520 -0.000000 -0.000001 -0.000000 0.000000 0.000000 -0.000000 -9.849217 19.684779 -8.059616 127.771871 -0.637483 -1.553833 -50.081782 -15.002862 -6.587574 -0.000001 -0.000001 0.000000 0.000000 0.000000 -0.000000 2.548519 0.533675 0.623950 0.798220 -6.431158 -3.899763 -1.021321 -6.841093 -3.167767 12.057598 6.731317 -4.243150 0.870823 20.853432 7.910076 0.000001 0.000000 -0.000001 0.000001 0.000000 -0.000001 0.000001 0.000000 -0.000000 0.000001 0.000000 -0.000001 0.000001 0.000000 0.000000 0.000001 0.000000 -0.000001 0.000001 0.000000 0.000000 0.000001 0.000000 -0.000001 0.000001 0.000000 -0.000001 4.102404 5.091749 -13.151837 -53.315046 -32.104358 -50.998308 0.000748 -83.753979 0.000722 -57.382229 27.007222 39.778684 -14.557471 10.837955 12.229969 0.749523 -4.257936 13.305467 0.000001 -0.000000 -0.000001 -0.809537 2.578185 -31.496427 3.095893 5.163749 -61.866966 0.000001 0.000000 -0.000000 -2.430841 1.729241 -41.460918 2.952352 5.084722 -60.259931 0.000001 0.000000 -0.000001 -6.054130 -0.166604 -49.857570 3.046256 5.137025 -61.313952 0.000000 0.000001 0.000003 -8.298302 -6.522635 -38.520146 2.848786 5.024378 -59.084415 -0.000001 0.000001 -0.000001 0.000001 -0.000002 0.000005 -14.594226 2.511235 -4.185288 74.337757 137.574312 -53.067175 -0.000012 31.904534 0.000004 -49.369611 -8.429218 -31.770949 8.377142 -4.904154 11.021987 21.620212 -18.183893 -18.379221 0.000001 -0.000001 0.000000 0.558951 -4.406593 25.436680 1.653038 -3.560321 49.799090 -0.000002 0.000000 0.000000 10.969825 -12.875573 52.800849 6.387579 -4.324420 111.833665 0.000001 -0.000001 0.000003 3.705078 -7.151302 57.622454 5.328223 -4.608691 98.293423 -0.000000 0.000000 0.000001 0.474831 -5.172990 58.987672 3.194322 -4.421937 71.674168 -0.000000 0.000001 0.000001 -0.000001 0.000000 -0.000001 -0.000000 -0.000002 0.000000 0.000000 -0.000000 -0.000000 -0.000000 -0.000002 0.000000 -0.000000 -0.000002 0.000000 -0.000000 -0.000002 0.000000 0.000000 -0.000000 -0.000000 -0.000000 -0.000002 0.000000 -0.000000 -0.000002 0.000000 -0.000000 -0.000002 0.000000 0.000000 -0.000000 -0.000000 -0.000000 0.000002 -0.000000 -0.000000 0.000002 -0.000000 -0.000000 0.000002 -0.000000 
